<mxfile host="app.diagrams.net" modified="2023-11-15T07:23:20.372Z" agent="Mozilla/5.0 (Windows NT 10.0; Win64; x64) AppleWebKit/537.36 (KHTML, like Gecko) Chrome/119.0.0.0 Safari/537.36" etag="t6u6aT-YpdYlbo2lanvH" version="22.1.1" type="device" pages="3">
  <diagram name="re1" id="JkzXqChmwJc7sXpIJYD6">
    <mxGraphModel dx="1050" dy="574" grid="1" gridSize="10" guides="1" tooltips="1" connect="1" arrows="1" fold="1" page="1" pageScale="1" pageWidth="827" pageHeight="1169" math="0" shadow="0">
      <root>
        <mxCell id="0" />
        <mxCell id="1" parent="0" />
        <mxCell id="WJb2BG2JKigpdhm2wN4K-6" value="" style="edgeStyle=orthogonalEdgeStyle;rounded=0;orthogonalLoop=1;jettySize=auto;html=1;" edge="1" parent="1" source="WJb2BG2JKigpdhm2wN4K-1" target="WJb2BG2JKigpdhm2wN4K-5">
          <mxGeometry relative="1" as="geometry" />
        </mxCell>
        <mxCell id="WJb2BG2JKigpdhm2wN4K-1" value="Start" style="strokeWidth=2;html=1;shape=mxgraph.flowchart.start_1;whiteSpace=wrap;" vertex="1" parent="1">
          <mxGeometry x="364" y="70" width="100" height="60" as="geometry" />
        </mxCell>
        <mxCell id="WJb2BG2JKigpdhm2wN4K-9" value="" style="edgeStyle=orthogonalEdgeStyle;rounded=0;orthogonalLoop=1;jettySize=auto;html=1;" edge="1" parent="1" source="WJb2BG2JKigpdhm2wN4K-5" target="WJb2BG2JKigpdhm2wN4K-7">
          <mxGeometry relative="1" as="geometry" />
        </mxCell>
        <mxCell id="WJb2BG2JKigpdhm2wN4K-5" value="&lt;font style=&quot;font-size: 16px;&quot;&gt;input a , b&lt;/font&gt;" style="shape=parallelogram;perimeter=parallelogramPerimeter;whiteSpace=wrap;html=1;fixedSize=1;" vertex="1" parent="1">
          <mxGeometry x="309" y="170" width="210" height="60" as="geometry" />
        </mxCell>
        <mxCell id="WJb2BG2JKigpdhm2wN4K-11" value="" style="edgeStyle=orthogonalEdgeStyle;rounded=0;orthogonalLoop=1;jettySize=auto;html=1;" edge="1" parent="1" source="WJb2BG2JKigpdhm2wN4K-7" target="WJb2BG2JKigpdhm2wN4K-10">
          <mxGeometry relative="1" as="geometry" />
        </mxCell>
        <mxCell id="WJb2BG2JKigpdhm2wN4K-7" value="&lt;font style=&quot;font-size: 16px;&quot;&gt;c = 0.5 * a * b&lt;/font&gt;" style="rounded=0;whiteSpace=wrap;html=1;" vertex="1" parent="1">
          <mxGeometry x="304" y="290" width="220" height="60" as="geometry" />
        </mxCell>
        <mxCell id="WJb2BG2JKigpdhm2wN4K-13" value="" style="edgeStyle=orthogonalEdgeStyle;rounded=0;orthogonalLoop=1;jettySize=auto;html=1;" edge="1" parent="1" source="WJb2BG2JKigpdhm2wN4K-10" target="WJb2BG2JKigpdhm2wN4K-12">
          <mxGeometry relative="1" as="geometry" />
        </mxCell>
        <mxCell id="WJb2BG2JKigpdhm2wN4K-10" value="&lt;font style=&quot;font-size: 16px;&quot;&gt;result = c&lt;/font&gt;" style="strokeWidth=2;html=1;shape=mxgraph.flowchart.display;whiteSpace=wrap;" vertex="1" parent="1">
          <mxGeometry x="349" y="400" width="130" height="60" as="geometry" />
        </mxCell>
        <mxCell id="WJb2BG2JKigpdhm2wN4K-12" value="End" style="strokeWidth=2;html=1;shape=mxgraph.flowchart.start_1;whiteSpace=wrap;" vertex="1" parent="1">
          <mxGeometry x="364" y="520" width="100" height="60" as="geometry" />
        </mxCell>
      </root>
    </mxGraphModel>
  </diagram>
  <diagram id="L8HQkxQiWQDhqs6ZQztg" name="re2">
    <mxGraphModel dx="1050" dy="574" grid="1" gridSize="10" guides="1" tooltips="1" connect="1" arrows="1" fold="1" page="1" pageScale="1" pageWidth="827" pageHeight="1169" math="0" shadow="0">
      <root>
        <mxCell id="0" />
        <mxCell id="1" parent="0" />
        <mxCell id="nU0mM4m2yAgCuyKcGbFc-4" value="" style="edgeStyle=orthogonalEdgeStyle;rounded=0;orthogonalLoop=1;jettySize=auto;html=1;" edge="1" parent="1" source="nU0mM4m2yAgCuyKcGbFc-1" target="nU0mM4m2yAgCuyKcGbFc-3">
          <mxGeometry relative="1" as="geometry" />
        </mxCell>
        <mxCell id="nU0mM4m2yAgCuyKcGbFc-1" value="Start" style="strokeWidth=2;html=1;shape=mxgraph.flowchart.start_1;whiteSpace=wrap;" vertex="1" parent="1">
          <mxGeometry x="250" y="90" width="100" height="60" as="geometry" />
        </mxCell>
        <mxCell id="nU0mM4m2yAgCuyKcGbFc-6" value="" style="edgeStyle=orthogonalEdgeStyle;rounded=0;orthogonalLoop=1;jettySize=auto;html=1;" edge="1" parent="1" source="nU0mM4m2yAgCuyKcGbFc-3" target="nU0mM4m2yAgCuyKcGbFc-5">
          <mxGeometry relative="1" as="geometry" />
        </mxCell>
        <mxCell id="nU0mM4m2yAgCuyKcGbFc-3" value="input a" style="shape=parallelogram;perimeter=parallelogramPerimeter;whiteSpace=wrap;html=1;fixedSize=1;" vertex="1" parent="1">
          <mxGeometry x="225" y="180" width="150" height="60" as="geometry" />
        </mxCell>
        <mxCell id="nU0mM4m2yAgCuyKcGbFc-14" style="edgeStyle=orthogonalEdgeStyle;rounded=0;orthogonalLoop=1;jettySize=auto;html=1;exitX=0.5;exitY=1;exitDx=0;exitDy=0;exitPerimeter=0;entryX=0;entryY=0.5;entryDx=0;entryDy=0;" edge="1" parent="1" source="nU0mM4m2yAgCuyKcGbFc-5" target="nU0mM4m2yAgCuyKcGbFc-11">
          <mxGeometry relative="1" as="geometry" />
        </mxCell>
        <mxCell id="nU0mM4m2yAgCuyKcGbFc-5" value="a &amp;gt; 0" style="strokeWidth=2;html=1;shape=mxgraph.flowchart.decision;whiteSpace=wrap;" vertex="1" parent="1">
          <mxGeometry x="240" y="280" width="120" height="100" as="geometry" />
        </mxCell>
        <mxCell id="nU0mM4m2yAgCuyKcGbFc-12" style="edgeStyle=orthogonalEdgeStyle;rounded=0;orthogonalLoop=1;jettySize=auto;html=1;exitX=0.5;exitY=1;exitDx=0;exitDy=0;exitPerimeter=0;entryX=0.5;entryY=0;entryDx=0;entryDy=0;" edge="1" parent="1" source="nU0mM4m2yAgCuyKcGbFc-7" target="nU0mM4m2yAgCuyKcGbFc-11">
          <mxGeometry relative="1" as="geometry" />
        </mxCell>
        <mxCell id="nU0mM4m2yAgCuyKcGbFc-17" style="edgeStyle=orthogonalEdgeStyle;rounded=0;orthogonalLoop=1;jettySize=auto;html=1;exitX=1;exitY=0.5;exitDx=0;exitDy=0;exitPerimeter=0;entryX=0.5;entryY=0;entryDx=0;entryDy=0;" edge="1" parent="1" source="nU0mM4m2yAgCuyKcGbFc-7" target="nU0mM4m2yAgCuyKcGbFc-16">
          <mxGeometry relative="1" as="geometry" />
        </mxCell>
        <mxCell id="nU0mM4m2yAgCuyKcGbFc-7" value="a &amp;lt; 0" style="strokeWidth=2;html=1;shape=mxgraph.flowchart.decision;whiteSpace=wrap;" vertex="1" parent="1">
          <mxGeometry x="414" y="360" width="116" height="100" as="geometry" />
        </mxCell>
        <mxCell id="nU0mM4m2yAgCuyKcGbFc-9" style="edgeStyle=orthogonalEdgeStyle;rounded=0;orthogonalLoop=1;jettySize=auto;html=1;exitX=1;exitY=0.5;exitDx=0;exitDy=0;exitPerimeter=0;entryX=0.5;entryY=0;entryDx=0;entryDy=0;entryPerimeter=0;" edge="1" parent="1" source="nU0mM4m2yAgCuyKcGbFc-5" target="nU0mM4m2yAgCuyKcGbFc-7">
          <mxGeometry relative="1" as="geometry" />
        </mxCell>
        <mxCell id="nU0mM4m2yAgCuyKcGbFc-19" value="" style="edgeStyle=orthogonalEdgeStyle;rounded=0;orthogonalLoop=1;jettySize=auto;html=1;" edge="1" parent="1" source="nU0mM4m2yAgCuyKcGbFc-11" target="nU0mM4m2yAgCuyKcGbFc-15">
          <mxGeometry relative="1" as="geometry" />
        </mxCell>
        <mxCell id="nU0mM4m2yAgCuyKcGbFc-11" value="" style="ellipse;whiteSpace=wrap;html=1;aspect=fixed;" vertex="1" parent="1">
          <mxGeometry x="360" y="620" width="20" height="20" as="geometry" />
        </mxCell>
        <mxCell id="nU0mM4m2yAgCuyKcGbFc-21" value="" style="edgeStyle=orthogonalEdgeStyle;rounded=0;orthogonalLoop=1;jettySize=auto;html=1;" edge="1" parent="1" source="nU0mM4m2yAgCuyKcGbFc-15" target="nU0mM4m2yAgCuyKcGbFc-20">
          <mxGeometry relative="1" as="geometry" />
        </mxCell>
        <mxCell id="nU0mM4m2yAgCuyKcGbFc-15" value="Result" style="strokeWidth=2;html=1;shape=mxgraph.flowchart.display;whiteSpace=wrap;" vertex="1" parent="1">
          <mxGeometry x="300" y="690" width="140" height="70" as="geometry" />
        </mxCell>
        <mxCell id="nU0mM4m2yAgCuyKcGbFc-18" style="edgeStyle=orthogonalEdgeStyle;rounded=0;orthogonalLoop=1;jettySize=auto;html=1;exitX=0.5;exitY=1;exitDx=0;exitDy=0;entryX=1;entryY=0.5;entryDx=0;entryDy=0;" edge="1" parent="1" source="nU0mM4m2yAgCuyKcGbFc-16" target="nU0mM4m2yAgCuyKcGbFc-11">
          <mxGeometry relative="1" as="geometry" />
        </mxCell>
        <mxCell id="nU0mM4m2yAgCuyKcGbFc-16" value="a = 0" style="rounded=0;whiteSpace=wrap;html=1;" vertex="1" parent="1">
          <mxGeometry x="570" y="470" width="120" height="60" as="geometry" />
        </mxCell>
        <mxCell id="nU0mM4m2yAgCuyKcGbFc-20" value="End" style="strokeWidth=2;html=1;shape=mxgraph.flowchart.start_1;whiteSpace=wrap;" vertex="1" parent="1">
          <mxGeometry x="320" y="810" width="100" height="60" as="geometry" />
        </mxCell>
        <mxCell id="nU0mM4m2yAgCuyKcGbFc-22" value="No" style="text;html=1;strokeColor=none;fillColor=none;align=center;verticalAlign=middle;whiteSpace=wrap;rounded=0;" vertex="1" parent="1">
          <mxGeometry x="350" y="300" width="60" height="30" as="geometry" />
        </mxCell>
        <mxCell id="nU0mM4m2yAgCuyKcGbFc-23" value="No" style="text;html=1;strokeColor=none;fillColor=none;align=center;verticalAlign=middle;whiteSpace=wrap;rounded=0;" vertex="1" parent="1">
          <mxGeometry x="520" y="380" width="60" height="30" as="geometry" />
        </mxCell>
        <mxCell id="nU0mM4m2yAgCuyKcGbFc-24" value="Yes" style="text;html=1;strokeColor=none;fillColor=none;align=center;verticalAlign=middle;whiteSpace=wrap;rounded=0;" vertex="1" parent="1">
          <mxGeometry x="250" y="370" width="60" height="30" as="geometry" />
        </mxCell>
        <mxCell id="nU0mM4m2yAgCuyKcGbFc-25" value="Yes" style="text;html=1;strokeColor=none;fillColor=none;align=center;verticalAlign=middle;whiteSpace=wrap;rounded=0;" vertex="1" parent="1">
          <mxGeometry x="420" y="450" width="60" height="30" as="geometry" />
        </mxCell>
      </root>
    </mxGraphModel>
  </diagram>
  <diagram id="5_LYnE2raiLzmelmMiiV" name="re3">
    <mxGraphModel dx="1050" dy="574" grid="1" gridSize="10" guides="1" tooltips="1" connect="1" arrows="1" fold="1" page="1" pageScale="1" pageWidth="827" pageHeight="1169" math="0" shadow="0">
      <root>
        <mxCell id="0" />
        <mxCell id="1" parent="0" />
        <mxCell id="ls7sr9xyTwQPhFGXUhDB-3" value="" style="edgeStyle=orthogonalEdgeStyle;rounded=0;orthogonalLoop=1;jettySize=auto;html=1;" edge="1" parent="1" source="ls7sr9xyTwQPhFGXUhDB-1" target="ls7sr9xyTwQPhFGXUhDB-2">
          <mxGeometry relative="1" as="geometry" />
        </mxCell>
        <mxCell id="ls7sr9xyTwQPhFGXUhDB-1" value="Start" style="strokeWidth=2;html=1;shape=mxgraph.flowchart.start_1;whiteSpace=wrap;" vertex="1" parent="1">
          <mxGeometry x="360" y="90" width="100" height="60" as="geometry" />
        </mxCell>
        <mxCell id="ls7sr9xyTwQPhFGXUhDB-5" value="" style="edgeStyle=orthogonalEdgeStyle;rounded=0;orthogonalLoop=1;jettySize=auto;html=1;" edge="1" parent="1" source="ls7sr9xyTwQPhFGXUhDB-2" target="ls7sr9xyTwQPhFGXUhDB-4">
          <mxGeometry relative="1" as="geometry" />
        </mxCell>
        <mxCell id="ls7sr9xyTwQPhFGXUhDB-2" value="input M" style="shape=parallelogram;perimeter=parallelogramPerimeter;whiteSpace=wrap;html=1;fixedSize=1;" vertex="1" parent="1">
          <mxGeometry x="350" y="190" width="120" height="60" as="geometry" />
        </mxCell>
        <mxCell id="ls7sr9xyTwQPhFGXUhDB-15" value="" style="edgeStyle=orthogonalEdgeStyle;rounded=0;orthogonalLoop=1;jettySize=auto;html=1;" edge="1" parent="1" source="ls7sr9xyTwQPhFGXUhDB-4" target="ls7sr9xyTwQPhFGXUhDB-14">
          <mxGeometry relative="1" as="geometry" />
        </mxCell>
        <mxCell id="ls7sr9xyTwQPhFGXUhDB-4" value="i = 1&amp;nbsp;" style="rounded=0;whiteSpace=wrap;html=1;" vertex="1" parent="1">
          <mxGeometry x="350" y="300" width="120" height="60" as="geometry" />
        </mxCell>
        <mxCell id="ls7sr9xyTwQPhFGXUhDB-9" value="" style="edgeStyle=orthogonalEdgeStyle;rounded=0;orthogonalLoop=1;jettySize=auto;html=1;" edge="1" parent="1" source="ls7sr9xyTwQPhFGXUhDB-6" target="ls7sr9xyTwQPhFGXUhDB-8">
          <mxGeometry relative="1" as="geometry" />
        </mxCell>
        <mxCell id="ls7sr9xyTwQPhFGXUhDB-20" style="edgeStyle=orthogonalEdgeStyle;rounded=0;orthogonalLoop=1;jettySize=auto;html=1;exitX=1;exitY=0.5;exitDx=0;exitDy=0;" edge="1" parent="1" source="ls7sr9xyTwQPhFGXUhDB-6" target="ls7sr9xyTwQPhFGXUhDB-19">
          <mxGeometry relative="1" as="geometry">
            <Array as="points">
              <mxPoint x="510" y="480" />
              <mxPoint x="510" y="860" />
              <mxPoint x="410" y="860" />
            </Array>
          </mxGeometry>
        </mxCell>
        <mxCell id="ls7sr9xyTwQPhFGXUhDB-6" value="i &amp;lt;= 12" style="rhombus;whiteSpace=wrap;html=1;" vertex="1" parent="1">
          <mxGeometry x="355" y="440" width="110" height="80" as="geometry" />
        </mxCell>
        <mxCell id="ls7sr9xyTwQPhFGXUhDB-11" value="" style="edgeStyle=orthogonalEdgeStyle;rounded=0;orthogonalLoop=1;jettySize=auto;html=1;" edge="1" parent="1" source="ls7sr9xyTwQPhFGXUhDB-8" target="ls7sr9xyTwQPhFGXUhDB-10">
          <mxGeometry relative="1" as="geometry" />
        </mxCell>
        <mxCell id="ls7sr9xyTwQPhFGXUhDB-8" value="M * i" style="rounded=0;whiteSpace=wrap;html=1;" vertex="1" parent="1">
          <mxGeometry x="350" y="560" width="120" height="60" as="geometry" />
        </mxCell>
        <mxCell id="ls7sr9xyTwQPhFGXUhDB-13" value="" style="edgeStyle=orthogonalEdgeStyle;rounded=0;orthogonalLoop=1;jettySize=auto;html=1;" edge="1" parent="1" source="ls7sr9xyTwQPhFGXUhDB-10" target="ls7sr9xyTwQPhFGXUhDB-12">
          <mxGeometry relative="1" as="geometry" />
        </mxCell>
        <mxCell id="ls7sr9xyTwQPhFGXUhDB-10" value="Result" style="strokeWidth=2;html=1;shape=mxgraph.flowchart.display;whiteSpace=wrap;" vertex="1" parent="1">
          <mxGeometry x="360" y="670" width="100" height="60" as="geometry" />
        </mxCell>
        <mxCell id="ls7sr9xyTwQPhFGXUhDB-17" style="edgeStyle=orthogonalEdgeStyle;rounded=0;orthogonalLoop=1;jettySize=auto;html=1;exitX=0;exitY=0.5;exitDx=0;exitDy=0;entryX=0;entryY=0.5;entryDx=0;entryDy=0;" edge="1" parent="1" source="ls7sr9xyTwQPhFGXUhDB-12" target="ls7sr9xyTwQPhFGXUhDB-14">
          <mxGeometry relative="1" as="geometry">
            <Array as="points">
              <mxPoint x="280" y="790" />
              <mxPoint x="280" y="400" />
            </Array>
          </mxGeometry>
        </mxCell>
        <mxCell id="ls7sr9xyTwQPhFGXUhDB-12" value="i ++" style="rounded=0;whiteSpace=wrap;html=1;" vertex="1" parent="1">
          <mxGeometry x="360" y="760" width="100" height="60" as="geometry" />
        </mxCell>
        <mxCell id="ls7sr9xyTwQPhFGXUhDB-16" value="" style="edgeStyle=orthogonalEdgeStyle;rounded=0;orthogonalLoop=1;jettySize=auto;html=1;" edge="1" parent="1" source="ls7sr9xyTwQPhFGXUhDB-14" target="ls7sr9xyTwQPhFGXUhDB-6">
          <mxGeometry relative="1" as="geometry" />
        </mxCell>
        <mxCell id="ls7sr9xyTwQPhFGXUhDB-14" value="" style="ellipse;whiteSpace=wrap;html=1;aspect=fixed;" vertex="1" parent="1">
          <mxGeometry x="400" y="390" width="20" height="20" as="geometry" />
        </mxCell>
        <mxCell id="ls7sr9xyTwQPhFGXUhDB-19" value="End" style="strokeWidth=2;html=1;shape=mxgraph.flowchart.start_1;whiteSpace=wrap;" vertex="1" parent="1">
          <mxGeometry x="360" y="880" width="100" height="60" as="geometry" />
        </mxCell>
        <mxCell id="ls7sr9xyTwQPhFGXUhDB-21" value="No" style="text;html=1;strokeColor=none;fillColor=none;align=center;verticalAlign=middle;whiteSpace=wrap;rounded=0;" vertex="1" parent="1">
          <mxGeometry x="450" y="450" width="60" height="30" as="geometry" />
        </mxCell>
        <mxCell id="ls7sr9xyTwQPhFGXUhDB-22" value="Yes" style="text;html=1;strokeColor=none;fillColor=none;align=center;verticalAlign=middle;whiteSpace=wrap;rounded=0;" vertex="1" parent="1">
          <mxGeometry x="400" y="520" width="60" height="30" as="geometry" />
        </mxCell>
      </root>
    </mxGraphModel>
  </diagram>
</mxfile>
